# Blender v2.78 (sub 0) OBJ File: ''
# www.blender.org
v 0.530000 -0.750000 0.600000
v 0.700000 -0.170000 0.600000
v 0.130000 -0.000000 0.600000
v -0.050000 -0.570000 0.600000
v -0.050000 -0.570000 -0.000000
v -0.050000 -0.570000 0.600000
v 0.130000 -0.000000 0.600000
v 0.130000 0.000000 0.000000
v 0.530000 -0.750000 -0.000000
v 0.530000 -0.750000 0.600000
v -0.050000 -0.570000 0.600000
v -0.050000 -0.570000 -0.000000
v 0.700000 -0.170000 -0.000000
v 0.700000 -0.170000 0.600000
v 0.530000 -0.750000 0.600000
v 0.530000 -0.750000 -0.000000
v 0.130000 0.000000 0.000000
v 0.130000 -0.000000 0.600000
v 0.700000 -0.170000 0.600000
v 0.700000 -0.170000 -0.000000
vn -0.0000 -0.0000 1.0000
vn -0.9536 0.3011 0.0000
vn -0.2964 -0.9551 -0.0000
vn 0.2858 0.9583 0.0000
vn 0.9596 -0.2813 -0.0000
s off
f 1//1 3//1 4//1
f 6//2 8//2 5//2
f 10//3 12//3 9//3
f 18//4 20//4 17//4
f 13//5 15//5 16//5
f 1//1 2//1 3//1
f 6//2 7//2 8//2
f 10//3 11//3 12//3
f 18//4 19//4 20//4
f 13//5 14//5 15//5
